<svg xmlns="http://www.w3.org/2000/svg" width="1500" height="640" viewBox="0 0 1500 640"><rect x="0" y="0" width="1500" height="310" fill="#11161d"/><rect x="20" y="18" width="1460" height="274" rx="16" fill="#171e27" stroke="#344050"/><text x="48" y="62" font-family="Inter,Arial,sans-serif" font-size="22" font-weight="700" fill="#e6edf6">Traceability Matrix Filters</text><rect x="1295" y="35" width="155" height="38" rx="7" fill="#202936" stroke="#344050"/><text x="1372.5" y="59.0" font-family="Inter,Arial,sans-serif" font-size="13" text-anchor="middle" fill="#e6edf6">×  Clear all filters</text><text x="48" y="122" font-family="Inter,Arial,sans-serif" font-size="12" font-weight="700" letter-spacing="1.4" fill="#9aa8ba">LINKS</text><rect x="140" y="99" width="56" height="28" rx="14" fill="#202936" stroke="#344050"/><circle cx="156" cy="113" r="11" fill="#9aa8ba"/><text x="210" y="119" font-family="Inter,Arial,sans-serif" font-size="13" fill="#e6edf6">Suspect only</text><line x1="320" y1="96" x2="320" y2="133" stroke="#344050"/><text x="350" y="122" font-family="Inter,Arial,sans-serif" font-size="12" font-weight="700" letter-spacing="1.4" fill="#9aa8ba">STATUS GROUPS</text><rect x="500" y="95" width="150" height="36" rx="7" fill="#0c594a" stroke="#24b6a6"/><text x="575.0" y="118.0" font-family="Inter,Arial,sans-serif" font-size="12" text-anchor="middle" fill="#e6edf6">✓ Pass / complete</text><rect x="660" y="95" width="170" height="36" rx="7" fill="#0c594a" stroke="#24b6a6"/><text x="745.0" y="118.0" font-family="Inter,Arial,sans-serif" font-size="12" text-anchor="middle" fill="#e6edf6">✓ Verified / accepted</text><rect x="840" y="95" width="160" height="36" rx="7" fill="#202936" stroke="#344050"/><text x="920.0" y="118.0" font-family="Inter,Arial,sans-serif" font-size="12" text-anchor="middle" fill="#9aa8ba">◐ Pending / review</text><rect x="1010" y="95" width="92" height="36" rx="7" fill="#202936" stroke="#344050"/><text x="1056.0" y="118.0" font-family="Inter,Arial,sans-serif" font-size="12" text-anchor="middle" fill="#9aa8ba">○ Draft</text><rect x="1112" y="95" width="125" height="36" rx="7" fill="#202936" stroke="#344050"/><text x="1174.5" y="118.0" font-family="Inter,Arial,sans-serif" font-size="12" text-anchor="middle" fill="#9aa8ba">× Fail / reject</text><rect x="1247" y="95" width="95" height="36" rx="7" fill="#202936" stroke="#344050"/><text x="1294.5" y="118.0" font-family="Inter,Arial,sans-serif" font-size="12" text-anchor="middle" fill="#9aa8ba">● Other</text><text x="48" y="187" font-family="Inter,Arial,sans-serif" font-size="12" font-weight="700" letter-spacing="1.4" fill="#9aa8ba">REQUIREMENT STATUS</text><rect x="280" y="160" width="120" height="38" rx="7" fill="#0c594a" stroke="#24b6a6"/><text x="340.0" y="184.0" font-family="Inter,Arial,sans-serif" font-size="13" text-anchor="middle" fill="#e6edf6">Accepted  ×</text><rect x="414" y="160" width="120" height="38" rx="7" fill="#6f1f2a" stroke="#d85b63"/><text x="474.0" y="184.0" font-family="Inter,Arial,sans-serif" font-size="13" text-anchor="middle" fill="#e6edf6">Rejected  ×</text><rect x="548" y="160" width="135" height="38" rx="7" fill="#202936" stroke="#344050"/><text x="615.5" y="184.0" font-family="Inter,Arial,sans-serif" font-size="13" text-anchor="middle" fill="#e6edf6">＋ Add status</text><line x1="720" y1="154" x2="720" y2="203" stroke="#344050"/><text x="755" y="187" font-family="Inter,Arial,sans-serif" font-size="12" font-weight="700" letter-spacing="1.4" fill="#9aa8ba">VERIFICATION STATUS</text><rect x="1010" y="160" width="112" height="38" rx="7" fill="#0c594a" stroke="#24b6a6"/><text x="1066.0" y="184.0" font-family="Inter,Arial,sans-serif" font-size="13" text-anchor="middle" fill="#e6edf6">Passed  ×</text><rect x="1136" y="160" width="135" height="38" rx="7" fill="#202936" stroke="#344050"/><text x="1203.5" y="184.0" font-family="Inter,Arial,sans-serif" font-size="13" text-anchor="middle" fill="#e6edf6">＋ Add status</text><line x1="48" y1="225" x2="1450" y2="225" stroke="#344050"/><text x="48" y="260" font-family="Inter,Arial,sans-serif" font-size="13" fill="#9aa8ba">12 requirements  ·  48 verifications  ·  156 links  ·  3 suspect  ·  8 coverage gaps</text><rect x="0" y="330" width="1500" height="310" fill="#f7f9fc"/><rect x="20" y="348" width="1460" height="274" rx="16" fill="#ffffff" stroke="#d7dee8"/><text x="48" y="392" font-family="Inter,Arial,sans-serif" font-size="22" font-weight="700" fill="#172033">Traceability Matrix Filters</text><rect x="1295" y="365" width="155" height="38" rx="7" fill="#f5f7fa" stroke="#d7dee8"/><text x="1372.5" y="389.0" font-family="Inter,Arial,sans-serif" font-size="13" text-anchor="middle" fill="#172033">×  Clear all filters</text><text x="48" y="452" font-family="Inter,Arial,sans-serif" font-size="12" font-weight="700" letter-spacing="1.4" fill="#526176">LINKS</text><rect x="140" y="429" width="56" height="28" rx="14" fill="#f5f7fa" stroke="#d7dee8"/><circle cx="156" cy="443" r="11" fill="#526176"/><text x="210" y="449" font-family="Inter,Arial,sans-serif" font-size="13" fill="#172033">Suspect only</text><line x1="320" y1="426" x2="320" y2="463" stroke="#d7dee8"/><text x="350" y="452" font-family="Inter,Arial,sans-serif" font-size="12" font-weight="700" letter-spacing="1.4" fill="#526176">STATUS GROUPS</text><rect x="500" y="425" width="150" height="36" rx="7" fill="#dff6e9" stroke="#159f8c"/><text x="575.0" y="448.0" font-family="Inter,Arial,sans-serif" font-size="12" text-anchor="middle" fill="#172033">✓ Pass / complete</text><rect x="660" y="425" width="170" height="36" rx="7" fill="#dff6e9" stroke="#159f8c"/><text x="745.0" y="448.0" font-family="Inter,Arial,sans-serif" font-size="12" text-anchor="middle" fill="#172033">✓ Verified / accepted</text><rect x="840" y="425" width="160" height="36" rx="7" fill="#f5f7fa" stroke="#d7dee8"/><text x="920.0" y="448.0" font-family="Inter,Arial,sans-serif" font-size="12" text-anchor="middle" fill="#526176">◐ Pending / review</text><rect x="1010" y="425" width="92" height="36" rx="7" fill="#f5f7fa" stroke="#d7dee8"/><text x="1056.0" y="448.0" font-family="Inter,Arial,sans-serif" font-size="12" text-anchor="middle" fill="#526176">○ Draft</text><rect x="1112" y="425" width="125" height="36" rx="7" fill="#f5f7fa" stroke="#d7dee8"/><text x="1174.5" y="448.0" font-family="Inter,Arial,sans-serif" font-size="12" text-anchor="middle" fill="#526176">× Fail / reject</text><rect x="1247" y="425" width="95" height="36" rx="7" fill="#f5f7fa" stroke="#d7dee8"/><text x="1294.5" y="448.0" font-family="Inter,Arial,sans-serif" font-size="12" text-anchor="middle" fill="#526176">● Other</text><text x="48" y="517" font-family="Inter,Arial,sans-serif" font-size="12" font-weight="700" letter-spacing="1.4" fill="#526176">REQUIREMENT STATUS</text><rect x="280" y="490" width="120" height="38" rx="7" fill="#dff6e9" stroke="#159f8c"/><text x="340.0" y="514.0" font-family="Inter,Arial,sans-serif" font-size="13" text-anchor="middle" fill="#172033">Accepted  ×</text><rect x="414" y="490" width="120" height="38" rx="7" fill="#fde6e8" stroke="#d85b63"/><text x="474.0" y="514.0" font-family="Inter,Arial,sans-serif" font-size="13" text-anchor="middle" fill="#172033">Rejected  ×</text><rect x="548" y="490" width="135" height="38" rx="7" fill="#f5f7fa" stroke="#d7dee8"/><text x="615.5" y="514.0" font-family="Inter,Arial,sans-serif" font-size="13" text-anchor="middle" fill="#172033">＋ Add status</text><line x1="720" y1="484" x2="720" y2="533" stroke="#d7dee8"/><text x="755" y="517" font-family="Inter,Arial,sans-serif" font-size="12" font-weight="700" letter-spacing="1.4" fill="#526176">VERIFICATION STATUS</text><rect x="1010" y="490" width="112" height="38" rx="7" fill="#dff6e9" stroke="#159f8c"/><text x="1066.0" y="514.0" font-family="Inter,Arial,sans-serif" font-size="13" text-anchor="middle" fill="#172033">Passed  ×</text><rect x="1136" y="490" width="135" height="38" rx="7" fill="#f5f7fa" stroke="#d7dee8"/><text x="1203.5" y="514.0" font-family="Inter,Arial,sans-serif" font-size="13" text-anchor="middle" fill="#172033">＋ Add status</text><line x1="48" y1="555" x2="1450" y2="555" stroke="#d7dee8"/><text x="48" y="590" font-family="Inter,Arial,sans-serif" font-size="13" fill="#526176">12 requirements  ·  48 verifications  ·  156 links  ·  3 suspect  ·  8 coverage gaps</text></svg>